<svg width="17" height="22" viewBox="0 0 17 22" fill="none" xmlns="http://www.w3.org/2000/svg">
<path d="M8.50005 22.0001C7.9604 22.0001 7.47715 21.751 7.20742 21.3338C7.20457 21.3294 7.20182 21.325 7.19906 21.3206L1.0685 11.3353C-0.394868 8.95175 -0.352907 6.12265 1.18077 3.76745C2.68118 1.4633 5.34621 0.0555981 8.30975 0.00180127C8.43636 -0.000519042 8.56364 -0.000519042 8.69015 0.00180127C11.6537 0.0555981 14.3188 1.4633 15.8192 3.76745C17.3529 6.12265 17.3949 8.95171 15.9315 11.3353L9.80094 21.3206C9.79818 21.325 9.79543 21.3294 9.79258 21.3338C9.5229 21.751 9.0397 22.0001 8.50005 22.0001ZM8.5 1.37508C8.44693 1.37508 8.39401 1.37555 8.34119 1.3765C5.92208 1.42041 3.74503 2.57193 2.51763 4.45684C1.25702 6.3928 1.22215 8.7177 2.42444 10.676L8.5 20.5717L14.5755 10.676C15.7778 8.7177 15.743 6.3928 14.4823 4.45684C13.2549 2.57197 11.0778 1.42041 8.65872 1.3765C8.60604 1.37555 8.55307 1.37508 8.5 1.37508Z" fill="#000"/>
<path d="M8.50007 10.3677C6.58305 10.3677 5.02344 8.97982 5.02344 7.27392C5.02344 5.56802 6.58305 4.18018 8.50007 4.18018C10.4171 4.18018 11.9767 5.56802 11.9767 7.27392C11.9767 8.97982 10.4171 10.3677 8.50007 10.3677ZM8.50007 5.55517C7.43506 5.55517 6.56861 6.32621 6.56861 7.27392C6.56861 8.22164 7.43506 8.99267 8.50007 8.99267C9.56508 8.99267 10.4315 8.22164 10.4315 7.27392C10.4315 6.32621 9.56508 5.55517 8.50007 5.55517Z" fill="#000"/>
</svg>
