<svg width="22" height="23" viewBox="0 0 22 23" fill="none" xmlns="http://www.w3.org/2000/svg">
<path d="M9.11064 13.7779C7.0109 11.6779 6.53679 9.57787 6.42983 8.73649C6.39995 8.50385 6.48 8.27054 6.64641 8.10526L8.34562 6.40657C8.59557 6.15673 8.63993 5.76737 8.45258 5.4677L5.74712 1.26611C5.53984 0.93428 5.11425 0.814519 4.76438 0.98957L0.421159 3.03536C0.138233 3.1747 -0.0281805 3.47534 0.00394269 3.78911C0.231515 5.95136 1.17404 11.2667 6.39684 16.4906C11.6196 21.7145 16.9334 22.6568 19.0965 22.8844C19.4103 22.9166 19.7109 22.7501 19.8502 22.4671L21.8957 18.1233C22.07 17.7741 21.9511 17.3496 21.6207 17.1419L17.4197 14.4369C17.1202 14.2493 16.7309 14.2933 16.481 14.5431L14.7825 16.2425C14.6173 16.409 14.384 16.489 14.1514 16.4591C13.3101 16.3522 11.2104 15.878 9.11064 13.7779Z" fill="#000"/>
<path d="M17.4486 12.6477C17.0297 12.6477 16.6901 12.308 16.6901 11.889C16.6865 8.74792 14.1414 6.20244 11.0008 6.19889C10.5818 6.19889 10.2422 5.85921 10.2422 5.4402C10.2422 5.02119 10.5818 4.68152 11.0008 4.68152C14.979 4.68591 18.2028 7.91025 18.2072 11.889C18.2072 12.308 17.8676 12.6477 17.4486 12.6477Z" fill="#000"/>
<path d="M21.2415 12.6477C20.8226 12.6477 20.483 12.3081 20.483 11.8891C20.4771 6.65385 16.2352 2.41135 11.0008 2.40549C10.5818 2.40549 10.2422 2.06582 10.2422 1.64681C10.2422 1.2278 10.5818 0.888123 11.0008 0.888123C17.0728 0.894813 21.9934 5.81618 22.0001 11.8891C22.0001 12.0903 21.9202 12.2832 21.7779 12.4255C21.6357 12.5678 21.4427 12.6477 21.2415 12.6477Z" fill="#000"/>
</svg>
